<svg xmlns="http://www.w3.org/2000/svg" width="560" height="176"><path d="M0 0h560v176H0V0Z" fill="#FEFEFE"/><path d="M32 16c6.792-.715 6.792-.715 10.02 1.195C47.235 21.565 49.076 25.224 50 32l2.21-2.458c4.8-3.966 10.475-3.257 16.415-3.206l3.698-.015c2.575-.003 5.15.006 7.726.027 3.938.027 7.873 0 11.81-.032 2.506.004 5.01.01 7.516.02l3.561-.03c9.094.13 9.094.13 12.853 3.236.73.81 1.46 1.622 2.211 2.458l2-4 .076 3.457c.094 4.223.194 8.446.296 12.668.044 1.83.085 3.66.125 5.489.058 2.626.122 5.252.187 7.878l.05 2.488c.01 4.143.01 4.143 1.266 8.02h-2v22h10v1h-12l-.012-5.061c-.022-6.197-.076-12.393-.14-18.59-.027-2.682-.04-5.364-.044-8.046-.009-3.856-.05-7.71-.097-11.565l.012-3.633c-.083-4.755-.197-8.139-2.478-12.36-5.127-2.76-10.069-2.458-15.803-2.41l-3.71-.014a825.43 825.43 0 0 0-7.756.027c-3.958.027-7.913 0-11.87-.032-2.513.004-5.026.01-7.54.02l-3.586-.03c-4.712.066-8.034.186-12.22 2.442-2.788 5.163-2.462 10.177-2.428 15.955l-.039 3.738c-.03 3.268-.04 6.535-.038 9.804-.003 4.619-.045 9.238-.083 13.857-.018 2.458-.028 4.916-.03 7.375l-.012 3.348-.001 2.962C50 91 50 91 49 92c-3.396.237-6.784.396-10.186.518-4.372.053-4.372.053-7.814 2.482-.37 2.325-.37 2.325-.414 5.008l-.108 2.692-.103 3.425L30 117h30l-.176-9.047c-.039-2.892-.07-5.785-.099-8.678-.025-2.01-.059-4.02-.102-6.029-.06-2.89-.09-5.778-.111-8.668l-.078-2.721c-.003-6.24-.003-6.24 2.876-9.363 3.25-1.806 6.535-3.117 10.065-4.244l1.922-.668c8.098-2.66 14.175-1.466 21.953 1.23l2.43.792c6.766 2.29 6.766 2.29 9.32 5.396.36 1.955.36 1.955.34 4.196v2.547l-.047 2.737-.013 2.813c-.017 2.965-.054 5.93-.093 8.894-.015 2.01-.028 4.02-.04 6.03-.031 4.928-.09 9.855-.147 14.783h32v32h-2l-1-18c-4.105 2.623-4.105 2.623-8.196 5.266-3.326 2.086-4.77 2.734-8.804 2.734v10h-2v-10H50v10h-2v-10l-2.633-.277C39.755 137.518 35.735 134.176 31 131l-1 18h-1c-.101-7.76-.171-15.519-.22-23.279-.02-2.64-.047-5.28-.082-7.92a1401.45 1401.45 0 0 1-.089-11.38l-.062-3.582-.001-3.336-.027-2.934c.623-3.33 1.823-4.53 4.481-6.569h3V66h6c-.02-5.179-.071-10.355-.153-15.533-.023-1.76-.037-3.521-.043-5.282-.009-2.535-.05-5.068-.097-7.603l.012-2.374c-.112-4.224-.373-5.778-3.119-9.194-2.359-1.827-3.678-2.69-6.6-3.014v-7Z" fill="#333"/><path d="M136 16v7l-2.813.75c-3.575 1.402-4.385 1.935-6.187 5.25a80.01 80.01 0 0 0-.512 8.484l-.054 2.472a979.97 979.97 0 0 0-.121 7.794c-.034 1.764-.068 3.529-.104 5.293-.085 4.319-.152 8.638-.209 12.957h6v24l4 1c2.234 1.36 2.234 1.36 4 4 .495 3.764.374 7.462.25 11.25L140 117h-32l-.043-9.082c-.03-2.9-.07-5.798-.11-8.698a684.401 684.401 0 0 1-.043-6.05c-.009-2.897-.05-5.792-.097-8.69l.012-2.737c-.055-2.352-.15-4.46-.719-6.743-2.205-2.139-2.205-2.139-5-3l-3.523-1.387c-1.282-.44-2.566-.873-3.852-1.3l-1.922-.682c-8.012-2.69-13.874-1.606-21.516 1.244l-2.31.816C64.567 72.226 64.567 72.226 61 75c-.33 1.896-.33 1.896-.319 4.083l-.06 2.547-.035 2.753-.059 2.816c-.06 2.975-.106 5.95-.152 8.926-.038 2.014-.077 4.029-.117 6.043-.098 4.944-.178 9.888-.258 14.832H30l-.188-10.813-.082-3.397-.023-2.685-.048-2.745C30 95 30 95 31.007 93.224c3.166-1.944 6.564-1.801 10.18-1.912l2.272-.103c1.846-.082 3.694-.147 5.541-.209l.011-2.092c.042-7.187.111-14.373.197-21.56.03-2.681.05-5.363.063-8.045.021-3.855.068-7.71.12-11.565l.003-3.633c.147-8.329.147-8.329 2.52-12.339 3.271-2.77 5.155-2.9 9.374-2.943l3.348-.039 3.634-.022 3.722-.025c2.603-.014 5.207-.024 7.81-.032 3.984-.013 7.967-.061 11.95-.105 2.527-.01 5.053-.019 7.58-.026l3.615-.053c8.277.022 8.277.022 12.282 2.38 2.801 3.32 2.894 5.19 2.885 9.467v3.397l-.016 3.68-.005 3.758c-.004 3.298-.013 6.596-.024 9.894-.01 3.365-.015 6.73-.02 10.094-.011 6.603-.028 13.206-.049 19.809l2-1V66c-.084-2.057-.168-4.114-.255-6.171-.146-3.58-.27-7.16-.392-10.74a717.511 717.511 0 0 0-.228-5.656 692.33 692.33 0 0 1-.297-8.167l-.129-2.539c-.172-6.738 1.893-10.185 6.551-15.102 3.82-2.257 6.363-1.922 10.75-1.625Z" fill="#F4F4F4"/><path d="m450 56 15.5-.313 4.842-.137c7.62-.075 13.839-.086 19.658 5.45 3.322 3.571 4.259 6.237 4.438 11-.162 4.285-1.12 7.328-3.438 11l2.5 2.438c2.82 3.39 3.128 6.062 2.852 10.39-.79 4.88-2.696 7.544-6.227 10.922-5.3 3.816-9.091 4.497-15.613 4.445l-3.9-.015-4.925-.055L450 111V56Z" fill="#151515"/><path d="m217 56 15-.25 4.684-.11c8.542-.07 14.909.134 21.41 6.368 3.215 4.84 4.813 8.693 4.43 14.566-1.42 6.58-5.315 10.452-10.524 14.426l1.177 1.513c1.758 2.263 3.51 4.531 5.26 6.8l1.854 2.38 1.768 2.295 1.634 2.11C265 108 265 108 266 111c-13.83 1.51-13.83 1.51-18.492-1.734-2.084-2.647-3.782-5.373-5.508-8.266a298.145 298.145 0 0 0-3.985-5.541c-2.034-2.798-4.02-5.632-6.015-8.459l-1 24h-14V56Z" fill="#191919"/><path d="m90 69 3.805 1.129C104.452 73.452 104.452 73.452 107 76c.175 3.084.231 6.08.195 9.164l-.006 2.436c-.01 3.009-.038 6.017-.064 9.025L107 117H61l-.25-19.75-.11-6.218c-.012-1.63-.022-3.26-.03-4.891l-.063-2.556c-.003-5.958-.003-5.958 2.254-9.061C70.114 69.456 81.379 66.436 90 69Z" fill="#5D5D5D"/><path d="M30 119h108c0 9 0 9-2.648 11.806-1.769 1.126-1.769 1.126-3.727 2.182l-2.04 1.148c-7.975 4.103-15.795 4.173-24.585 4.06-1.691.005-3.383.014-5.074.025a668.67 668.67 0 0 1-10.559-.048c-4.469-.05-8.933-.021-13.402.032-3.486.033-6.97.023-10.456 0-1.645-.007-3.29 0-4.936.022-8.993.09-16.256-.77-24.198-5.24l-1.958-1.055c-1.769-1.126-1.769-1.126-4.417-3.932v-9Z" fill="#FDFDFD"/><path d="M378 56h14l1 23 3.246-4.777 4.192-6.16 2.142-3.155 2.041-2.998 1.889-2.777C408 57 408 57 409 56c2.697-.073 5.367-.092 8.063-.063l2.298.014c1.88.012 3.76.03 5.639.049-1.273 3.492-2.743 6.28-4.969 9.25l-1.73 2.344-3.602 4.812c-.57.774-1.142 1.547-1.73 2.344l-1.58 2.11c-1.54 2.373-2.643 4.403-3.389 7.14.71 2.088.71 2.088 2.219 3.926l1.578 2.166 1.703 2.22 1.61 2.186a491.013 491.013 0 0 0 6.636 8.757l1.66 2.163 1.51 1.942C426 109 426 109 426 111c-5.401 1.2-10.724 2.086-16 0-5.98-5.121-10.02-12.292-14-19l-3-5-1 24h-14V56Z" fill="#191919"/><path d="m61.336 34.741 3.377-.019 3.662.012 3.744-.005c3.287-.002 6.574.006 9.861.017 2.018.004 4.035 0 6.053-.007 3.864-.012 7.728-.01 11.592-.005l3.662-.012 3.377.02 2.983.004C112 35 112 35 114 37c.227 2.706.227 2.706.195 6.102l-.02 3.671-.05 3.852-.027 3.875c-.024 3.167-.057 6.333-.098 9.5-13.352-.882-13.352-.882-16.867-1.523-4.223-.643-8.367-.668-12.633-.665l-2.668-.001c-6.435.051-12.544.63-18.887 1.751-3.027.45-5.89.468-8.945.438-.058-4.458-.094-8.916-.125-13.375-.017-1.271-.034-2.542-.05-3.852l-.02-3.671-.032-3.396c.43-5.125 3.113-4.958 7.563-4.965ZM271 56h13l.028 3.118c.04 3.836.106 7.67.18 11.506.028 1.656.049 3.313.063 4.97.022 2.388.068 4.776.12 7.164l.003 2.226c.144 5.099 1.324 8.12 4.606 12.016 2.693.831 2.693.831 5.563.563l2.878-.06c2.9-.57 3.821-1.154 5.559-3.503 1.223-3.67 1.231-7.123 1.316-10.95l.063-2.34c.066-2.466.125-4.932.183-7.397l.131-5.018c.107-4.098.209-8.197.307-12.295h13c.1 5.247.172 10.493.22 15.741.02 1.782.047 3.563.082 5.345.395 20.751.395 20.751-6.232 28.035-7.864 5.322-14.532 6.894-24.07 5.879-6.782-2.06-11.738-6.389-15.116-12.604-2.222-4.564-2.406-8.481-2.275-13.49l.018-2.521c.022-2.63.072-5.257.123-7.885.02-1.794.038-3.589.055-5.383.044-4.373.112-8.745.195-13.117Z" fill="#131313"/><path d="m355.438 55.813 2.564-.038 2.494-.005 2.256-.013C365 56 365 56 370 58v13l-6-1c-2.854-.213-5.701-.23-8.563-.25l-2.248-.063c-4.568-.032-7.46.386-11.189 3.313-2.831 4.45-2.53 9.906-2 15 1.546 4.251 3.067 6.76 7 9 2.694.243 5.13.33 7.813.25l2.08-.016c4.447-.067 8.718-.523 13.107-1.234v13c-9.229 3.012-20.575 4.129-29.625 0-6.324-3.825-11.693-9.452-13.934-16.61-1.608-8.71-1.373-16.6 3.137-24.34 6.903-9.955 14.51-12.229 25.86-12.237Z" fill="#141414"/><path d="M165 56h46v12h-17v42h-13V68h-16V56Z" fill="#131313"/><path d="M136 16v7l-2.813.75c-3.575 1.402-4.385 1.935-6.187 5.25a80.01 80.01 0 0 0-.512 8.484l-.054 2.472a979.97 979.97 0 0 0-.121 7.794c-.034 1.764-.068 3.529-.104 5.293-.085 4.319-.152 8.638-.209 12.957h6v24l4 1c2.234 1.36 2.234 1.36 4 4 .495 3.76.375 7.465.25 11.25l-.055 3.125A547.711 547.711 0 0 1 140 117h-2l-.06-1.988c-.095-2.963-.205-5.925-.315-8.887-.03-1.033-.062-2.065-.094-3.129l-.117-2.988-.095-2.761C137.2 94.8 137.2 94.8 135 93a114.874 114.874 0 0 0-8.125-.625l-2.285-.117A762.735 762.735 0 0 0 119 92l1-2c.084-1.644.107-3.291.098-4.938l-.01-2.96-.025-3.102-.014-3.102c-.012-2.632-.03-5.265-.049-7.898v-2c-.084-2.057-.168-4.114-.255-6.171-.146-3.58-.27-7.16-.392-10.74a717.511 717.511 0 0 0-.228-5.656 692.33 692.33 0 0 1-.297-8.167l-.129-2.539c-.172-6.738 1.893-10.185 6.551-15.102 3.82-2.257 6.363-1.922 10.75-1.625Z" fill="#3E3E3E"/><path d="M504 56h13v54h-13V56Z" fill="#111"/><path d="M101 72c4.75.75 4.75.75 7 3 .24 1.835.24 1.835.227 4.083v2.547l-.032 2.753-.008 2.816c-.011 2.976-.037 5.95-.062 8.926-.01 2.014-.02 4.029-.027 6.043-.02 4.944-.06 9.888-.098 14.832h32v32h-2l-1-18c-4.105 2.623-4.105 2.623-8.196 5.266-3.326 2.086-4.77 2.734-8.804 2.734v10h-2v-10H50v10h-2v-10l-2.633-.277C39.755 137.518 35.735 134.176 31 131l-1 18h-1v-30h1v9l2.237.808c2.696 1.163 4.627 2.526 6.977 4.263 7.272 4.406 15.148 3.835 23.368 3.796 1.703.01 3.407.02 5.11.032 3.558.018 7.115.013 10.673-.007 4.527-.023 9.05.017 13.576.076 3.515.037 7.03.036 10.545.025 1.667 0 3.333.011 5 .036 10.573.137 17.42-1.073 26.107-7.314C136 128 136 128 138 128v-9l-2.796.013c-8.682.04-17.364.071-26.046.09-4.463.011-8.927.025-13.39.048-4.306.022-8.611.034-12.917.039-1.645.003-3.29.01-4.935.021-2.299.015-4.597.017-6.896.016l-3.97.014C64 119 64 119 62 117h4V79h1v38l13-1c5.02-.141 8.994.166 14 1V80h1v37l7-1c2.938.438 2.938.438 5 1-.02-5.766-.071-11.531-.153-17.297a648.383 648.383 0 0 1-.043-5.884c-.009-2.82-.05-5.64-.097-8.46l.012-2.655c-.089-5.22-.089-5.22-3.263-9.289L101 72Z" fill="#3B3B3B"/><path d="m90 69 3.805 1.129C104.452 73.452 104.452 73.452 107 76c.176 3.085.231 6.08.195 9.164l-.008 2.75a1781.76 1781.76 0 0 1-.062 8.711c-.01 1.966-.02 3.932-.027 5.898-.022 4.826-.057 9.651-.098 14.477h-4V78H65v39h-4a1871.73 1871.73 0 0 1-.22-16.87 755.75 755.75 0 0 0-.082-5.738c-.048-2.75-.071-5.5-.089-8.251l-.062-2.59c-.002-5.925-.002-5.925 2.254-9.027C70.114 69.456 81.379 66.436 90 69Z" fill="#F4F4F4"/><path d="M86 78h17v39H88c-2.082-2.082-1.258-6.534-1.316-9.41l-.063-2.552c-.066-2.7-.125-5.4-.183-8.1l-.131-5.479C86.199 86.973 86.1 82.486 86 78Z" fill="#454545"/><path d="M85 42h28v20c-9.42-.635-18.657-1.69-28-3V42Z" fill="#F5F5F5"/><path d="M56 43h27v16l-27 3V43Z" fill="#FEFEFE"/><path d="M101 72c4.75.75 4.75.75 7 3 .24 1.835.24 1.835.227 4.083v2.547l-.032 2.753-.008 2.816c-.011 2.976-.037 5.95-.062 8.926-.01 2.014-.02 4.029-.027 6.043-.02 4.944-.06 9.888-.098 14.832h32v2c-9.875.046-19.75.082-29.624.104-4.585.01-9.17.024-13.754.047-4.422.022-8.844.034-13.266.039-1.69.003-3.38.01-5.07.021-2.36.015-4.721.017-7.082.016l-2.132.022c-4.844-.02-4.844-.02-7.072-2.249h4V79h1v38l13-1c5.02-.141 8.994.166 14 1V80h1v37l7-1c2.938.438 2.938.438 5 1-.02-5.766-.071-11.531-.153-17.297a648.383 648.383 0 0 1-.043-5.884c-.009-2.82-.05-5.64-.097-8.46l.012-2.655c-.089-5.22-.089-5.22-3.263-9.289L101 72Z" fill="#141414"/><path d="M138 130v19h-18v-10l2.875-1.125c4.278-1.815 8.145-4.221 12.086-6.668C137 130 137 130 138 130Z" fill="#F6F6F6"/><path d="m30 130 5.063 2.813C39.304 135.13 43.514 137.206 48 139v10H30v-19Z" fill="#F7F7F7"/><path d="M231 69c2.605-.08 5.207-.14 7.813-.188l2.236-.076c5.448-.074 5.448-.074 7.931 1.592 1.657 2.716 1.526 4.574 1.02 7.672-2.84 2.98-4.421 3.936-8.55 4.39l-3.762-.14-3.801-.11L231 82V69Z" fill="#F6F6F6"/><path d="M57 37h55v4H56l1-4Z" fill="#ECECEC"/><path d="M120 68h10v22h-10V68Z" fill="#F1F1F1"/><path d="M38 68h10v22H38V68Z" fill="#F4F4F4"/><path d="M34 17c4.878.454 7.522 1.522 11 5 3.19 5.077 3.405 9.103 3.293 14.898l-.013 2.53c-.017 2.65-.054 5.298-.093 7.947a3501.52 3501.52 0 0 0-.04 5.41C48.113 57.19 48.061 61.595 48 66h-4l-.044-3.317c-.058-4.073-.136-8.144-.218-12.216-.034-1.76-.062-3.521-.084-5.282a866.81 866.81 0 0 0-.142-7.603l-.02-2.374C43.371 30.656 42.88 27.588 40 24c-3.067-1.826-3.067-1.826-6-3v-4Z" fill="#EFEFEF"/><path d="M134 17v4l-5.273 2.734c-2.237 1.64-2.745 2.643-3.727 5.266a123.66 123.66 0 0 0-.414 8.484l-.059 2.472c-.06 2.598-.106 5.196-.152 7.794-.038 1.764-.077 3.529-.117 5.293-.096 4.319-.18 8.638-.258 12.957h-4c-.1-5.123-.172-10.245-.22-15.369-.02-1.74-.047-3.48-.082-5.22a603.165 603.165 0 0 1-.089-7.536l-.062-2.327c-.002-5.635 1.378-9.812 4.453-14.548 2.995-2.902 5.844-4 10-4Z" fill="#ECECEC"/><path d="m94.938 68.5 2.072.723c1.667.582 3.329 1.178 4.99 1.777l-1 2-2.09-.621-2.847-.817-2.778-.808c-8.183-1.878-13.849-1.852-21.785 1.058l-2.453.83C64.73 73.846 64.73 73.846 62 77a244.194 244.194 0 0 0-.168 8.875l-.01 2.667c-.005 1.863-.007 3.726-.007 5.589-.002 2.857-.02 5.715-.04 8.572-.003 1.807-.005 3.615-.005 5.422l-.022 2.601c-.2 4.616-.2 4.616 2.252 8.274H29v-2h31l-.176-9.047c-.039-2.892-.07-5.785-.099-8.678-.025-2.01-.059-4.02-.102-6.029-.06-2.89-.09-5.778-.111-8.668l-.078-2.721c-.003-6.24-.003-6.24 2.876-9.363 3.25-1.806 6.535-3.117 10.065-4.244l1.922-.668c7.593-2.495 13.366-1.723 20.64.918Z" fill="#191919"/><path d="M113 102h21v9h-21v-9Z" fill="#232323"/><path d="M34 102h21v9H34v-9Z" fill="#222"/><path d="M96 80h5v37h-5V80Z" fill="#F9F9F9"/><path d="M89 80h5v37h-5V80Z" fill="#EEE"/><path d="M82 80h5v37h-5V80Z" fill="#E9E9E9"/><path d="M67 80h5v37h-5V80Z" fill="#F6F6F6"/><path d="M463 68a787.82 787.82 0 0 1 7.313-.125c.69-.017 1.38-.034 2.091-.05 3.767-.037 5.38.031 8.596 2.175.313 2.5.313 2.5 0 5-2 2-2 2-5.695 2.195a329.638 329.638 0 0 1-4.43-.07l-2.285-.027c-1.864-.024-3.727-.06-5.59-.098v-9Z" fill="#EFEFEF"/><path d="M463 90c2.959-.054 5.916-.094 8.875-.125l2.55-.05 2.442-.02 2.254-.032C481 90 481 90 483 92c-.556 4.556-.556 4.556-2 6-1.343.086-2.69.107-4.035.098l-2.451-.01-2.577-.025-2.587-.014c-2.117-.012-4.233-.03-6.35-.049v-8Z" fill="#FAFAFA"/><path d="M75 80h4v37h-4V80Z" fill="#FFF"/><path d="M55 42h28v1H56v19l2-1c16.565-3.196 33.42-2.813 50 0-3.368 2.245-3.676 2.167-7.438 1.625-12.518-1.378-25.21-1.257-37.617.938C60 64 60 64 54 64l1-22Z" fill="#7F7F7F"/><path d="m61.336 34.725 3.377-.029 3.662.003 3.744-.013c3.287-.007 6.574-.004 9.861.002 2.018 0 4.035-.01 6.053-.024 3.864-.025 7.728-.029 11.592-.027l3.662-.028 3.377.019 2.983-.002L112 35l2 3-2 3v-4c-7.797.067-15.593.157-23.389.262-2.654.034-5.308.062-7.962.084-3.808.034-7.615.086-11.422.142l-3.615.02-3.336.06-2.947.033L57 38l-2 3c-.625-1.875-.625-1.875-1-4 2.606-2.606 3.706-2.258 7.336-2.275Z" fill="#303030"/><path d="M79 78h7v2h-4v37h-3V78Z" fill="#525252"/><path d="M36 66h6v2h-4v22h-2V66Zm5.25 24.25 2.258.2c1.832.164 3.663.354 5.492.55v1l-3.43.148-4.445.227c-.746.03-1.493.062-2.262.094-4.398.087-4.398.087-7.863 2.531-.37 2.325-.37 2.325-.414 5.008l-.117 2.988-.094 3.129-.117 3.152c-.095 2.574-.18 5.148-.258 7.723h-1c-.116-3.75-.187-7.499-.25-11.25l-.102-3.223-.039-3.105-.063-2.857c1.272-7.184 6.644-6.99 12.704-6.315Z" fill="#373737"/><path d="M138 119h2v30h-2l-1-18c-4.15 2.667-4.15 2.667-8.286 5.356-1.525.959-3.12 1.804-4.714 2.644l-3-1h2v-2a102.21 102.21 0 0 1 6.375-4.125l1.828-1.129C135.73 128 135.73 128 138 128v-9Z" fill="#303030"/><path d="M86 78h3v39l-2-1-1-38Z" fill="#383838"/><path d="M50.5 122.75C53 123 53 123 55 125c.25 3 .25 3 0 6-2 2-2 2-4.5 2.25C48 133 48 133 46 131c-.25-3-.25-3 0-6 2-2 2-2 4.5-2.25Z" fill="#4F4F4F"/><path d="M115 123c5.568.568 5.568.568 7 2 .25 2.938.25 2.938 0 6-3 2-3 2-6.188 1.625L113 132c-.125-3.375-.125-3.375 0-7l2-2Z" fill="#4A4A4A"/><path d="m94.938 68.5 2.072.723c1.667.582 3.329 1.178 4.99 1.777l-1 2-2.09-.621A274.105 274.105 0 0 0 90 70l-2.242-.563C80.495 68.123 73.837 70.734 67 73l-2-2c2.35-.847 4.704-1.678 7.063-2.5l1.99-.723c7.562-2.607 13.49-1.962 20.885.723Z" fill="#444"/><path d="M29 119h1v9l2.168.813c2.873 1.204 5.465 2.6 8.145 4.187l2.675 1.563L45 136v2l3 1c-6.991-.736-11.24-4.136-17-8l-1 18h-1v-30Z" fill="#2C2C2C"/><path d="M124 103h8v7h-8v-7Z" fill="#DADADA"/><path d="M36 103h8v7h-8v-7Z" fill="#DEDEDE"/><path d="M32 16c7.508-.37 7.508-.37 10 1.5l1 1.5c-3.38 0-5.835-.875-9-2v4l2.813.688C40.507 23.207 41.325 24.463 43 28l-2 1-2.25-2.438C36.247 24.23 35.282 23.366 32 23v-7Z" fill="#323232"/><path d="M114 103h8v6h-8v-6Z" fill="#E9E9E9"/><path d="M46 103h8v6h-8v-6Z" fill="#EBEBEB"/><path d="M78 60c-3.518 2.083-6.85 2.58-10.875 3.125l-3.617.508c-3.204.335-6.29.436-9.508.367v-2c8.076-1.438 15.794-2.296 24-2Z" fill="#3F3F3F"/><path d="m134 17 2 1v5l-2.75.75c-3.354 1.29-4.927 2.57-7.25 5.25l-1-2c5.143-5.571 5.143-5.571 9-6v-4Z" fill="#404040"/><path d="M49 125c2.063.438 2.063.438 4 1v4l-4 1a88.406 88.406 0 0 1-1-5l1-1Z" fill="#F3F3F3"/><path d="m116 125 4 1-1 5-4-1 1-5Z" fill="#F8F8F8"/><path d="M119 28h1v9h-2c-1.86-2.592-3.572-5.144-5-8 3.875 1.875 3.875 1.875 5 3l1-4Z" fill="#1B1B1B"/><path d="M36.938 21.625C40.481 23.217 41.365 24.551 43 28l-2 1-2.25-2.375C36.456 24.435 34.878 23.173 32 22c2-1 2-1 4.938-.375Z" fill="#444"/><path d="m114 127 2 3c2.584.25 2.584.25 5 0v2c-5.75 1.125-5.75 1.125-8 0l1-5Z" fill="#5E5E5E"/><path d="M132 66c-2 2-2 2-3.945 2.195L122 68l-1-2c3.818-1.374 7.073-.68 11 0Z" fill="#292929"/></svg>